<svg width="360" height="800" viewBox="0 0 360 800" fill="none" xmlns="http://www.w3.org/2000/svg">
<g clip-path="url(#clip0_307_2)">
<circle cx="301" cy="215" r="93" fill="#5779F7"/>
<circle cx="138" cy="160" r="33" fill="#5779F7"/>
<circle cx="126.5" cy="63.5" r="9.5" fill="#5779F7"/>
<circle cx="66.5" cy="215.5" r="9.5" fill="#5779F7"/>
<circle cx="302" cy="54" r="29" fill="#5779F7"/>
<circle cx="208" cy="80" r="16" fill="#5779F7"/>
<circle cx="184" cy="540" r="93" fill="#5779F7"/>
<circle cx="21" cy="485" r="33" fill="#5779F7"/>
<circle cx="9.5" cy="374.5" r="9.5" fill="#5779F7"/>
<circle cx="185" cy="379" r="29" fill="#5779F7"/>
<circle cx="144" cy="285" r="16" fill="#5779F7"/>
<circle cx="91" cy="405" r="16" fill="#5779F7"/>
<circle cx="360" cy="381" r="33" fill="#5779F7"/>
<circle cx="338.5" cy="273.5" r="9.5" fill="#5779F7"/>
<circle cx="278.5" cy="439.5" r="9.5" fill="#5779F7"/>
<circle cx="303" cy="846" r="93" fill="#5779F7"/>
<circle cx="140" cy="791" r="33" fill="#5779F7"/>
<circle cx="304" cy="685" r="29" fill="#5779F7"/>
<circle cx="210" cy="711" r="16" fill="#5779F7"/>
</g>
<defs>
<clipPath id="clip0_307_2">
<rect width="360" height="800" fill="white"/>
</clipPath>
</defs>
</svg>
